<svg version="1.1" id="Layer_1" xmlns="http://www.w3.org/2000/svg" xmlns:xlink="http://www.w3.org/1999/xlink" x="0px" y="0px"
	 width="100%" viewBox="0 0 512 512" enable-background="new 0 0 512 512" xml:space="preserve">
	<defs>
		<clipPath id="circleClip">
			<circle cx="256" cy="256" r="256" />
		</clipPath>
	</defs>
	<g clip-path="url(#circleClip)">
		<path fill="#009FE3" opacity="1.000000" stroke="none" 
			d="
		M303.000000,513.000000 
			C202.024521,513.000000 101.549034,513.000000 1.036777,513.000000 
			C1.036777,342.399506 1.036777,171.798981 1.036777,1.099231 
			C171.558823,1.099231 342.117737,1.099231 512.838318,1.099231 
			C512.838318,171.666550 512.838318,342.333252 512.838318,513.000000 
			C443.132294,513.000000 373.316132,513.000000 303.000000,513.000000 
		M193.911240,205.686005 
			C165.175323,218.069931 136.669418,231.036224 107.580017,242.525146 
			C97.253632,246.603577 93.306602,251.820343 94.949631,262.505096 
			C95.477608,265.938629 96.314209,267.697357 99.511635,269.064270 
			C134.252884,283.916107 168.928604,298.921204 203.631683,313.862488 
			C205.228775,314.550110 206.915527,315.029480 209.625641,315.979004 
			C209.625641,309.796082 209.350067,304.525391 209.714798,299.299408 
			C209.995209,295.281525 208.474716,293.462585 204.806885,291.964325 
			C179.076965,281.453613 153.444702,270.703766 127.787186,260.016083 
			C126.323776,259.406494 124.912979,258.670624 122.645950,257.601135 
			C125.099770,256.509125 126.587318,255.809113 128.103546,255.178024 
			C153.764496,244.497452 179.436310,233.842896 205.075134,223.109497 
			C206.664230,222.444244 209.196213,221.243195 209.258301,220.173492 
			C209.645432,213.505417 209.453522,206.803741 209.453522,198.963867 
			C203.667831,201.467865 199.139023,203.427902 193.911240,205.686005 
		M373.808197,266.531708 
			C355.524353,274.134644 337.227875,281.707428 318.965302,289.361115 
			C314.228851,291.346130 307.850037,292.409302 305.411896,296.037231 
			C302.981049,299.654358 304.454224,305.958405 304.389191,311.086609 
			C304.304810,317.742218 304.394928,317.780945 310.764374,315.038025 
			C342.402496,301.413300 374.042389,287.792633 405.658203,274.116302 
			C419.256989,268.233734 419.125519,268.175415 418.936462,253.395035 
			C418.897247,250.327301 417.666779,249.028992 415.086273,247.920944 
			C379.764008,232.753891 344.478058,217.502090 309.168915,202.304352 
			C307.912323,201.763489 306.508301,201.565048 304.365417,200.990479 
			C304.365417,206.946960 304.689148,212.090622 304.266022,217.172104 
			C303.908600,221.464630 305.713409,223.290176 309.466888,224.821060 
			C333.347839,234.560837 357.139862,244.518814 380.953766,254.422668 
			C384.100433,255.731339 387.205017,257.141022 391.583923,259.051361 
			C385.074677,261.801758 379.799164,264.030853 373.808197,266.531708 
		M256.007812,210.191666 
			C248.015839,238.730698 240.030746,267.271637 232.029068,295.807953 
			C227.893280,310.557312 223.788651,325.315918 219.535599,340.031525 
			C218.403152,343.949799 218.691330,346.208374 223.610489,345.679810 
			C226.246490,345.396576 228.971191,345.362488 231.596725,345.690002 
			C235.796738,346.213898 237.267166,344.311829 238.341354,340.435608 
			C248.790390,302.730103 259.458771,265.085388 270.054138,227.420380 
			C275.103821,209.469482 280.055511,191.490463 285.225800,173.574463 
			C286.392517,169.531525 285.507751,167.961548 281.199066,168.314224 
			C278.219238,168.558121 275.174103,168.625641 272.211212,168.295563 
			C268.553650,167.888077 267.283234,169.686951 266.431671,172.846924 
			C263.139435,185.063522 259.661530,197.230072 256.007812,210.191666 
		z"/>
	</g>
</svg>